Coordinates
version=1
nRows=16
nColumns=22
inDegrees=yes

Units are S.I. units (second, meters, Newtons, ...)
If the header above contains a line with 'inDegrees', this indicates whether rotational values are in degrees (yes) or radians (no).

endheader
time	pelvis_tilt	pelvis_list	pelvis_rotation	pelvis_tx	pelvis_ty	pelvis_tz	hip_flexion_r	hip_adduction_r	hip_rotation_r	knee_angle_r	ankle_angle_r	subtalar_angle_r	hip_flexion_l	hip_adduction_l	hip_rotation_l	knee_angle_l	ankle_angle_l	subtalar_angle_l	lumbar_extension	lumbar_bending	lumbar_rotation
      1.31000000	    -11.14947027	      3.75932727	    -37.96787206	     -0.95431312	      0.88111380	     -0.39718327	     10.41977124	      2.32745828	      0.98030062	     -5.24992663	     10.76360203	     -1.83917463	      8.76177445	     -2.85064204	     -4.90854820	     -8.52316138	     15.85639144	     -0.10799864	      3.44912272	      1.96840177	     10.73572793
      1.32000000	    -11.16227565	      3.75924125	    -37.89681966	     -0.95339044	      0.88101256	     -0.39738421	     10.45157741	      2.27577473	      0.87018825	     -5.38558732	     10.90653744	     -1.74894068	      8.73822521	     -2.79941739	     -4.82329326	     -8.52361431	     15.88833898	     -0.19881635	      3.43965343	      1.96674889	     10.69957056
      1.33000000	    -11.16335764	      3.74446945	    -37.82258396	     -0.95243306	      0.88093127	     -0.39758491	     10.47118366	      2.22748906	      0.80182412	     -5.54107301	     11.02614705	     -1.68072414	      8.69383126	     -2.75194655	     -4.71175507	     -8.52689383	     15.94183947	     -0.26679171	      3.41006776	      1.96761586	     10.66502432
      1.34000000	    -11.15905809	      3.73237874	    -37.72265604	     -0.95138316	      0.88084703	     -0.39783056	     10.49646602	      2.16337915	      0.69868955	     -5.72152440	     11.15881041	     -1.53869511	      8.64647892	     -2.68915201	     -4.56212323	     -8.52804836	     15.96577104	     -0.41089093	      3.38223813	      1.96364654	     10.60654062
      1.35000000	    -11.14318164	      3.69542844	    -37.63989810	     -0.95026932	      0.88077233	     -0.39801575	     10.50781296	      2.11742265	      0.62222135	     -5.93719381	     11.33187659	     -1.51355613	      8.56086193	     -2.64415943	     -4.45396674	     -8.52328420	     16.05026532	     -0.43929963	      3.33462317	      1.97392990	     10.57553102
      1.36000000	    -11.11503191	      3.67013731	    -37.52998974	     -0.94906605	      0.88069045	     -0.39826054	     10.53836115	      2.04288762	      0.51033925	     -6.20212452	     11.52826398	     -1.44972917	      8.47530947	     -2.57099544	     -4.30962175	     -8.51977124	     16.08714644	     -0.50957187	      3.28753398	      1.96795955	     10.49799899
      1.37000000	    -11.08473390	      3.64493773	    -37.42898316	     -0.94782385	      0.88058949	     -0.39850221	     10.59068642	      1.96606359	      0.41920329	     -6.51488053	     11.74220918	     -1.37774406	      8.38742843	     -2.49601630	     -4.16244044	     -8.52408132	     16.15137720	     -0.58974680	      3.24081597	      1.96227022	     10.44563448
      1.38000000	    -11.04959213	      3.62675314	    -37.32955419	     -0.94653951	      0.88046538	     -0.39874396	     10.67545547	      1.87942582	      0.32738163	     -6.89280902	     11.99461928	     -1.30657358	      8.29877663	     -2.41022099	     -4.01753475	     -8.53198737	     16.22913054	     -0.67050793	      3.19784859	      1.94685582	     10.39668792
      1.39000000	    -11.01979285	      3.63462238	    -37.22600292	     -0.94524987	      0.88029193	     -0.39901721	     10.82211358	      1.76973975	      0.24122821	     -7.34328073	     12.25953887	     -1.19144162	      8.24322839	     -2.30414377	     -3.84594454	     -8.56231100	     16.30699081	     -0.79544378	      3.17663357	      1.90844841	     10.36139741
      1.40000000	    -10.96998500	      3.61953172	    -37.13094972	     -0.94391783	      0.88013321	     -0.39925216	     10.96816306	      1.66943282	      0.16554449	     -7.86061784	     12.57097482	     -1.13698215	      8.15435153	     -2.20768121	     -3.72581089	     -8.59799101	     16.41206418	     -0.85707356	      3.12339946	      1.87815350	     10.30465421
      1.41000000	    -10.91768237	      3.63005007	    -37.02921441	     -0.94257624	      0.87993201	     -0.39952403	     11.17834918	      1.54083344	      0.08347852	     -8.46901919	     12.91189108	     -1.05862147	      8.09241272	     -2.08536114	     -3.57674845	     -8.65769575	     16.50937074	     -0.93743188	      3.08304202	      1.81997480	     10.25757862
      1.42000000	    -10.85687570	      3.64141143	    -36.92937055	     -0.94120861	      0.87971261	     -0.39978258	     11.42093044	      1.40535109	      0.00327027	     -9.15308299	     13.27059756	     -0.97050634	      8.02503379	     -1.95752046	     -3.42972122	     -8.72572524	     16.62224685	     -1.02108647	      3.03559074	      1.75190692	     10.21498060
      1.43000000	    -10.78225304	      3.65312545	    -36.83202217	     -0.93979232	      0.87947895	     -0.40003580	     11.69183905	      1.25806697	     -0.07770976	     -9.91547300	     13.65049384	     -0.87438064	      7.94252842	     -1.81842424	     -3.28212632	     -8.79542380	     16.74168380	     -1.10460541	      2.97697212	      1.67455668	     10.17390810
      1.44000000	    -10.72498083	      3.69457218	    -36.73539375	     -0.93836055	      0.87917314	     -0.40030046	     12.04937136	      1.09250103	     -0.15968295	    -10.77484559	     14.01962802	     -0.67747697	      7.89296166	     -1.66346952	     -3.10864294	     -8.86762640	     16.86322356	     -1.25913305	      2.95480974	      1.57965842	     10.15080840
      1.45000000	    -10.60621478	      3.69917092	    -36.63824956	     -0.93682917	      0.87894061	     -0.40053281	     12.34996580	      0.91731246	     -0.24908480	    -11.68383999	     14.43288438	     -0.56918904	      7.75655702	     -1.49949235	     -2.95040796	     -8.93365193	     16.98321428	     -1.33350831	      2.85279534	      1.47688653	     10.11601188
      1.46000000	    -10.47391382	      3.67469309	    -36.54015678	     -0.93522162	      0.87871719	     -0.40071990	     12.64381607	      0.75757886	     -0.33994014	    -12.64888606	     14.85530759	     -0.48653356	      7.57820162	     -1.35280093	     -2.81577263	     -8.98746653	     17.13459085	     -1.38736193	      2.72400980	      1.39201997	     10.05118933
